<svg height="800" width="800" version="1.1" id="Layer_1" xmlns="http://www.w3.org/2000/svg" viewBox="0 0 512 512" xml:space="preserve"><path d="M435.168 269.639c-23.667 0-42.921 19.254-42.921 42.921 0 23.667 19.254 42.921 42.921 42.921 23.667 0 42.921-19.254 42.921-42.921 0-23.667-19.254-42.921-42.921-42.921z" fill="#f5f4f5"/><g fill="#ccc"><path d="M435.168 235.727c-42.366 0-76.832 34.466-76.832 76.832s34.466 76.832 76.832 76.832S512 354.925 512 312.559s-34.466-76.832-76.832-76.832zm0 119.753c-23.667 0-42.921-19.254-42.921-42.921 0-23.667 19.254-42.921 42.921-42.921 23.667 0 42.921 19.254 42.921 42.921 0 23.667-19.254 42.921-42.921 42.921z"/><path d="M392.86 183.072H48.544c-9.364 0-17.49 7.988-17.49 17.354v69.826c0 38.118 11.063 75.277 31.488 107.461 20.424 32.184 49.584 57.774 84.074 74.004l17.359 8.138c18.004 8.472 37.365 12.709 56.693 12.709s38.673-4.237 56.676-12.709l17.302-8.138c34.49-16.23 63.478-41.82 83.903-74.004 20.424-32.184 31.183-69.343 31.183-107.461v-69.826c0-9.366-7.508-17.354-16.872-17.354z"/></g><path d="M220.652 183.072H48.544c-9.364 0-17.49 7.988-17.49 17.354v69.826c0 38.118 11.063 75.277 31.488 107.461 20.424 32.184 49.584 57.774 84.074 74.004l17.359 8.138c18.004 8.472 37.365 12.709 56.693 12.709l-.016-289.492z" fill="#e1e1e1"/><path d="M377.21 422.904c-9.364 0-16.956 7.722-16.956 16.765H81.05c0-9.043-7.592-16.765-16.956-16.765s-16.956 7.496-16.956 16.86c0 36.775 29.918 66.598 66.693 66.598h213.642c36.775 0 66.693-29.823 66.693-66.598-.001-9.364-7.592-16.86-16.956-16.86z" fill="#16a5d9"/><g fill="#4ad0ff"><path d="M220.669 439.669H81.05c0-9.043-7.592-16.765-16.956-16.765s-16.956 7.496-16.956 16.86c0 36.775 29.918 66.598 66.693 66.598h106.821l.017-66.693z"/><path d="M424.448 415.931H16.956C7.592 415.931 0 423.522 0 432.886c0 9.364 7.592 16.956 16.956 16.956h407.493c9.364 0 16.956-7.592 16.956-16.956-.001-9.364-7.592-16.955-16.957-16.955z"/></g><path d="M220.665 415.931H16.956C7.592 415.931 0 423.522 0 432.886c0 9.364 7.592 16.956 16.956 16.956h203.696l.013-33.911z" fill="#99e5ff"/><path d="M159.242 149.855a16.889 16.889 0 01-10.611-3.739l-8.316-6.683c-11.398-9.161-17.823-22.799-17.624-37.42.198-14.621 6.988-28.082 18.63-36.93 4.422-3.362 5.181-7.862 5.238-10.245.058-2.384-.479-6.916-4.733-10.488-7.17-6.024-8.1-16.719-2.078-23.89s16.718-8.1 23.89-2.078c11.043 9.276 17.174 22.864 16.822 37.281-.352 14.417-7.138 27.691-18.62 36.418a13.192 13.192 0 00-5.242 10.389 13.192 13.192 0 004.958 10.527l8.316 6.683c7.3 5.866 8.462 16.539 2.596 23.839-3.348 4.17-8.266 6.336-13.226 6.336zm70.414 8.773a16.889 16.889 0 01-10.611-3.739l-9.754-7.838c-12.66-10.173-19.795-25.323-19.575-41.563.219-16.24 7.762-31.191 20.693-41.018a18.409 18.409 0 007.3-14.277 18.409 18.409 0 00-6.595-14.616c-7.17-6.023-8.1-16.718-2.077-23.888 6.022-7.17 16.718-8.1 23.888-2.077C245.19 19.914 252 35.007 251.609 51.021c-.391 16.014-7.929 30.757-20.681 40.448a18.38 18.38 0 00-7.303 14.478 18.382 18.382 0 006.909 14.67l9.754 7.838c7.3 5.866 8.462 16.539 2.595 23.838a16.926 16.926 0 01-13.227 6.335zm67.763-8.773a16.889 16.889 0 01-10.611-3.739l-8.316-6.683c-11.398-9.161-17.823-22.799-17.624-37.42.198-14.621 6.988-28.082 18.63-36.93 4.422-3.362 5.181-7.862 5.238-10.245.058-2.384-.479-6.916-4.733-10.488-7.17-6.024-8.1-16.719-2.078-23.89s16.718-8.1 23.889-2.078c11.043 9.276 17.174 22.864 16.822 37.281-.352 14.417-7.138 27.691-18.62 36.418a13.192 13.192 0 00-5.242 10.389 13.192 13.192 0 004.958 10.527l8.316 6.683c7.3 5.866 8.462 16.539 2.596 23.839-3.346 4.17-8.263 6.336-13.225 6.336z" fill="#ccc"/></svg>