<svg height="800" width="800" version="1.1" id="Layer_1" xmlns="http://www.w3.org/2000/svg" viewBox="0 0 512.001 512.001" xml:space="preserve"><path d="M489.813 11.128C477.325 2.019 462.038-1.681 446.765.708c-15.271 2.389-28.698 10.584-37.806 23.071L210.618 295.705c-5.766 7.904-4.032 18.985 3.872 24.751a17.631 17.631 0 008.453 3.294c6.114.684 12.413-1.841 16.297-7.166L437.583 44.657a22.29 22.29 0 0114.659-8.946 22.298 22.298 0 0116.692 4.04c7.902 5.764 18.985 4.032 24.751-3.872 5.766-7.905 4.031-18.986-3.872-24.751z" fill="#2c6991"/><path d="M446.765.708c-15.271 2.389-28.698 10.584-37.806 23.071L210.618 295.705c-5.766 7.904-4.032 18.985 3.872 24.751L446.765.708z" fill="#528fb3"/><path d="M414.565 205.235c-9.783 0-17.715 7.931-17.715 17.715 0 9.783 7.931 17.715 17.715 17.715 10.576 0 19.18 8.605 19.18 19.181s-8.605 19.18-19.18 19.18c-9.783 0-17.715 7.931-17.715 17.715 0 9.783 7.931 17.715 17.715 17.715 30.112 0 54.61-24.498 54.61-54.609s-24.497-54.612-54.61-54.612zM57.769 259.844c0-10.577 8.605-19.181 19.181-19.181 9.783 0 17.715-7.931 17.715-17.715 0-9.783-7.931-17.715-17.715-17.715-30.112 0-54.61 24.498-54.61 54.61s24.498 54.609 54.61 54.609c9.783 0 17.715-7.931 17.715-17.715 0-9.783-7.931-17.715-17.715-17.715-10.575.002-19.181-8.601-19.181-19.178z" fill="#fb5858"/><path d="M426.068 455.141l-10.024-278.168c-.575-15.96-13.535-28.711-29.505-28.711H104.977c-15.97 0-28.93 12.752-29.505 28.711L65.448 455.016c-.539 14.932 4.877 29.315 15.251 40.07 10.374 10.754 24.316 16.915 39.258 16.915H371.56c14.942 0 28.884-6.099 39.257-16.852 10.373-10.756 15.789-25.077 15.251-40.008z" fill="#ff835d"/><path d="M246.258 148.261H104.977c-15.97 0-28.93 12.752-29.505 28.711L65.448 455.016c-.539 14.932 4.877 29.315 15.251 40.07 10.374 10.754 24.316 16.915 39.258 16.915h126.301v-363.74z" fill="#fbb071"/><path d="M340.918 88.728L39.004 205.133c-9.129 3.519-19.382-1.027-22.901-10.156-3.519-9.129 1.027-19.382 10.156-22.901L328.171 55.671c9.129-3.519 19.382 1.027 22.901 10.156 3.52 9.129-1.027 19.382-10.154 22.901z" fill="#ccc"/><path d="M189.96 146.93L39.004 205.133c-9.129 3.519-19.382-1.027-22.901-10.156-3.519-9.129 1.027-19.382 10.156-22.901l150.957-58.202 12.744 33.056z" fill="#e1e1e1"/><path d="M240.014 89.661l-125.599 48.424c-9.129 3.519-19.382-1.027-22.901-10.156-3.519-9.129 1.027-19.382 10.156-22.901l125.597-48.424c9.129-3.519 19.382 1.027 22.901 10.156s-1.026 19.381-10.154 22.901z" fill="#ff835d"/><path d="M177.215 113.874l-62.799 24.212c-9.129 3.519-19.382-1.027-22.901-10.156-3.519-9.129 1.027-19.382 10.156-22.901l62.799-24.212 12.745 33.057z" fill="#fbb071"/></svg>