<svg version="1.1" id="Layer_1" xmlns="http://www.w3.org/2000/svg" viewBox="0 0 512 512" xml:space="preserve"><circle cx="256" cy="256" r="256" fill="#273b7a"/><path d="M512 256c0-4.62-.129-9.211-.371-13.771L399.167 120.435l-41.839 118.057-111.156-118.057-108.937 147.448-3.344 61.383-18.623 62.298L227.33 510.392A258.26 258.26 0 00256 512c141.384 0 256-114.616 256-256z" fill="#121149"/><path d="M238.075 394.983H123.361c-6.244 0-11.307-5.061-11.307-11.307V128.324c0-6.244 5.061-11.307 11.307-11.307h114.716c6.244 0 11.307 5.061 11.307 11.307v255.352c-.002 6.244-5.063 11.307-11.309 11.307z" fill="#d0d1d3"/><path d="M238.075 117.017h-58.501v277.964h58.501c6.244 0 11.307-5.061 11.307-11.307v-255.35c0-6.244-5.061-11.307-11.307-11.307z" fill="#a6a8aa"/><path fill="#fff" d="M126.121 133.154h109.192v245.708H126.121z"/><path fill="#d0d1d3" d="M179.579 133.154h55.751v245.708h-55.751z"/><path d="M208.019 190.335h-54.601a2.587 2.587 0 010-5.172h54.601a2.587 2.587 0 010 5.172zm0 13.65h-54.601a2.587 2.587 0 010-5.172h54.601a2.587 2.587 0 010 5.172zm0-27.3h-54.601a2.587 2.587 0 010-5.172h54.601a2.587 2.587 0 010 5.172z" fill="#808183"/><path d="M208.019 185.163h-28.444v5.172h28.444a2.587 2.587 0 000-5.172zm0 13.65h-28.444v5.172h28.444a2.587 2.587 0 000-5.172zm0-27.3h-28.444v5.172h28.444a2.587 2.587 0 000-5.172zm8.273 100.862a6.034 6.034 0 01-6.034-6.034V239.04a6.034 6.034 0 1112.068 0v27.302a6.036 6.036 0 01-6.034 6.033z" fill="#59595b"/><path d="M391.071 394.983H276.356c-6.244 0-11.307-5.061-11.307-11.307V128.324c0-6.244 5.061-11.307 11.307-11.307h114.716c6.244 0 11.307 5.061 11.307 11.307v255.352c0 6.244-5.062 11.307-11.308 11.307z" fill="#d0d1d3"/><path d="M391.071 117.017H332.57v277.964h58.501c6.244 0 11.307-5.061 11.307-11.307v-255.35c.001-6.244-5.061-11.307-11.307-11.307z" fill="#a6a8aa"/><path fill="#fff" d="M279.118 133.154H388.31v245.708H279.118z"/><path fill="#d0d1d3" d="M332.576 133.154h55.751v245.708h-55.751z"/><path d="M361.015 190.335h-54.601a2.587 2.587 0 010-5.172h54.601a2.587 2.587 0 010 5.172zm0 13.65h-54.601a2.587 2.587 0 010-5.172h54.601a2.587 2.587 0 010 5.172zm0-27.3h-54.601a2.587 2.587 0 010-5.172h54.601a2.587 2.587 0 010 5.172z" fill="#808183"/><path d="M361.015 185.163h-28.444v5.172h28.444a2.587 2.587 0 000-5.172zm0 13.65h-28.444v5.172h28.444a2.587 2.587 0 000-5.172zm0-27.3h-28.444v5.172h28.444a2.587 2.587 0 000-5.172zm8.273 100.862a6.034 6.034 0 01-6.034-6.034V239.04a6.034 6.034 0 1112.068 0v27.302a6.034 6.034 0 01-6.034 6.033z" fill="#59595b"/></svg>