<svg width="200" height="100" version="1.1" id="svg5" xmlns="http://www.w3.org/2000/svg"><g id="layer1"><g id="g3424" font-size="77.402" font-family="Aquawax"><path id="path1556" style="-inkscape-font-specification:'Aquawax, Normal'" d="M18.768 27.047v18.255a17.101 17.101 0 018.79-3.441V27.047zm0 45.352v18.257h8.79V75.84a17.101 17.101 0 01-8.79-3.441z" display="inline" stroke-width="6.659" stroke-linecap="round"/><path id="path1558" style="-inkscape-font-specification:'Aquawax, Normal'" d="M30.532 27.047v14.765a17.101 17.101 0 018.79 3.304v-9.281h15.092c3.166 0 6.138.608 8.92 1.821 2.811 1.213 5.254 2.87 7.325 4.971 2.102 2.071 3.758 4.512 4.971 7.323 1.214 2.782 1.822 5.756 1.822 8.923 0 3.166-.608 6.156-1.822 8.967a23.59 23.59 0 01-4.97 7.323c-2.072 2.071-4.515 3.715-7.326 4.928-2.782 1.184-5.754 1.775-8.92 1.775H39.322V72.53a17.101 17.101 0 01-8.79 3.322v14.803h23.882c2.93 0 5.739-.371 8.432-1.111 2.722-.77 5.254-1.833 7.592-3.195a31.955 31.955 0 006.436-4.973 32.766 32.766 0 005.015-6.436 31.26 31.26 0 003.197-7.59 31.03 31.03 0 001.154-8.478c0-2.93-.384-5.742-1.154-8.435a30.309 30.309 0 00-3.197-7.59 31.115 31.115 0 00-5.015-6.435 31.116 31.116 0 00-6.436-5.016 30.324 30.324 0 00-7.592-3.197c-2.693-.77-5.503-1.153-8.432-1.153z" display="inline" stroke-width="6.659" stroke-linecap="round"/><path style="-inkscape-font-specification:'Aquawax, Normal'" d="M89.215 27.047v63.609h26.223l3.833-8.79H98.003v-18.91h24.725v-8.788H98.003V35.835h30.54v-8.788z" id="path1560" display="inline" stroke-width="6.659" stroke-linecap="round"/><path d="M144.921 27.046h8.567l27.743 63.61h-5.06q-2.087 0-3.773-1.066-1.687-1.11-2.53-3.019l-4.44-10.12h-32.492l-4.394 10.12q-.8 1.865-2.53 2.975-1.687 1.11-3.773 1.11h-5.06zm3.463 14.027l-11.586 26.589h24.813l-11.585-26.589q-.71-1.553-.843-3.773-.09 1.11-.311 2.042-.178.932-.488 1.731z" style="-inkscape-font-specification:'Aquawax, Normal'" id="path1562" display="inline" stroke-width="6.659" stroke-linecap="round"/><path id="path3204" style="-inkscape-font-specification:'Aquawax, Normal'" d="M29.134 43.987A14.864 14.864 0 0014.27 58.85a14.864 14.864 0 0014.864 14.866A14.864 14.864 0 0043.999 58.85a14.864 14.864 0 00-14.865-14.863zm.197.994a6.51 6.51 0 01.88.054c.21.023.491.056.827.108.895.139 2.551.478 4.352 1.424 1.582.832 3.3 2.146 4.63 4.196 1.418 2.183 2.201 4.907 2.212 8.087.001.398-.01.78-.032 1.147-.167 2.86-1.003 5.15-2.188 6.92-1.383 2.064-3.155 3.302-4.689 4.057-1.324.652-2.566.992-3.434 1.205-.31.076-.603.14-.876.193-1.418.272-1.876.216-1.88.181-.002-.035.455-.071 1.786-.535.256-.09.529-.194.813-.314a12.763 12.763 0 002.937-1.767 12.198 12.198 0 003.372-4.174c.761-1.554 1.294-3.477 1.418-5.916.016-.316.025-.649.026-.997.01-2.764-.497-5.033-1.453-6.929-.907-1.797-2.153-3.125-3.43-4.122-1.438-1.121-2.9-1.802-3.708-2.137a12.58 12.58 0 00-.759-.289c-.847-.286-1.004-.32-1.001-.35.001-.013.042-.036.197-.042z" fill="#000" fill-opacity="1" stroke="none" stroke-width="2.773" stroke-linecap="butt" stroke-dasharray="none" stroke-opacity=".678"/></g><g id="g1545" transform="translate(-14.713 3.863) scale(1.14696)" color="#000" fill="#000"><g id="path1059"><path style="-inkscape-stroke:none" d="M12.828 79.466h174.374" id="path3409"/><path style="-inkscape-stroke:none" d="M12.828 78.967v1h174.373v-1z" id="path3411"/></g><g id="path1541"><path style="-inkscape-stroke:none" d="M12.828 82.569h174.374" id="path3415" stroke-width="2.5"/><path style="-inkscape-stroke:none" d="M12.828 81.318v2.5h174.373v-2.5z" id="path3417"/></g></g></g></svg>