<svg width="165" height="60" fill="none" xmlns="http://www.w3.org/2000/svg"><g clip-path="url(#clip0_13_122)" fill="#fff"><path d="M15.398 0v15.014a14.01 14.01 0 017.212-2.83V0h-7.212zm0 37.3v15.015h7.212V40.13a14.01 14.01 0 01-7.212-2.83zM25.048 0v12.143a14.01 14.01 0 017.212 2.718V7.228h12.382c2.597 0 5.036.5 7.318 1.498 2.306.998 4.31 2.36 6.01 4.088 1.723 1.704 3.082 3.71 4.078 6.023.995 2.288 1.494 4.734 1.494 7.338s-.499 5.063-1.494 7.375a19.404 19.404 0 01-4.078 6.023c-1.7 1.704-3.704 3.056-6.01 4.053-2.282.974-4.72 1.46-7.319 1.46H32.26v-7.678a14.01 14.01 0 01-7.212 2.733v12.174h19.594c2.403 0 4.708-.305 6.917-.913a26.773 26.773 0 006.229-2.628 26.228 26.228 0 005.28-4.09 26.938 26.938 0 004.115-5.293 25.741 25.741 0 002.622-6.242c.631-2.24.947-4.564.947-6.974s-.316-4.722-.947-6.936a24.958 24.958 0 00-2.622-6.243 25.58 25.58 0 00-4.115-5.293 25.538 25.538 0 00-5.28-4.125A24.847 24.847 0 0051.559.95 24.995 24.995 0 0044.642 0H25.047zm48.144 0v52.315h21.514l3.145-7.23H80.402v-15.55h20.285v-7.228H80.402V7.228h25.056V0H73.192zm45.703 0h7.028l22.76 52.315h-4.151c-1.141 0-2.173-.292-3.095-.877-.923-.608-1.615-1.435-2.076-2.482l-3.642-8.324h-26.657l-3.605 8.324a5.348 5.348 0 01-2.076 2.446 5.5 5.5 0 01-3.095.913h-4.152L118.895 0zm2.84 11.536l-9.505 21.868h20.357l-9.505-21.868c-.388-.852-.619-1.886-.691-3.103a11.21 11.21 0 01-.255 1.68 8.107 8.107 0 01-.401 1.423z"/><path d="M23.901 13.932a12.18 12.18 0 00-8.622 3.581 12.24 12.24 0 00-2.644 13.322 12.195 12.195 0 0011.266 7.548 12.167 12.167 0 008.625-3.58 12.228 12.228 0 003.571-8.646 12.25 12.25 0 00-3.572-8.645 12.195 12.195 0 00-8.623-3.58zm.162.818c.127-.005.349.004.723.045.171.018.402.045.678.088a11.48 11.48 0 013.57 1.172 10.081 10.081 0 013.8 3.45c1.162 1.796 1.805 4.036 1.813 6.652.002.327-.008.642-.025.943-.138 2.353-.824 4.236-1.796 5.691-1.134 1.698-2.588 2.716-3.847 3.337-1.086.536-2.105.816-2.817.991a14.21 14.21 0 01-.719.159c-1.163.223-1.539.177-1.542.149-.002-.029.373-.059 1.465-.44a10.468 10.468 0 003.077-1.712 10.027 10.027 0 002.766-3.432c.625-1.28 1.062-2.86 1.163-4.866.013-.26.021-.534.022-.82.009-2.273-.408-4.14-1.193-5.699-.743-1.478-1.765-2.57-2.813-3.39a13.327 13.327 0 00-3.665-1.995c-.695-.236-.824-.264-.822-.287.002-.012.035-.03.162-.036zM0 55.423v.944h164.082v-.944H.001zm0 2.219V60h164.082v-2.358H.001z"/></g><defs><clipPath id="clip0_13_122"><path fill="#fff" d="M0 0h164.082v60H0z"/></clipPath></defs></svg>