<svg width="52" height="48" fill="none" xmlns="http://www.w3.org/2000/svg"><path d="M33.759 17.143a3.75 3.75 0 013.75 3.75v14.462c0 6.51-5.278 11.788-11.788 11.788-6.51 0-11.788-5.278-11.788-11.788V20.893a3.75 3.75 0 013.75-3.75h16.076zm-30.009 0l9.39-.004a5.866 5.866 0 00-1.332 3.283l-.018.47v14.463c0 2.429.621 4.712 1.714 6.7a9.623 9.623 0 01-3.858.802A9.645 9.645 0 010 33.212v-12.32a3.75 3.75 0 013.75-3.75zm34.551-.004l9.378.004a3.75 3.75 0 013.75 3.75v12.321c0 5.326-4.318 9.643-9.643 9.643a9.61 9.61 0 01-3.852-.8l.12-.217a13.853 13.853 0 001.58-5.787l.017-.698V20.893a5.869 5.869 0 00-1.35-3.754zM25.714 0a7.5 7.5 0 110 15 7.5 7.5 0 010-15zm17.15 2.143a6.429 6.429 0 110 12.857 6.429 6.429 0 010-12.857zm-34.299 0a6.429 6.429 0 110 12.857 6.429 6.429 0 010-12.857z" fill="url(#paint0_linear_16_660)"/><defs><linearGradient id="paint0_linear_16_660" x1="25.714" y1="0" x2="25.714" y2="47.143" gradientUnits="userSpaceOnUse"><stop offset=".228" stop-color="#E47727"/><stop offset="1" stop-color="#FCA947"/></linearGradient></defs></svg>