<svg version="1.1" id="_x36_" xmlns="http://www.w3.org/2000/svg" viewBox="0 0 512 512" xml:space="preserve"><path d="M283.094 63.649h-.102c25.48 4.012 48.239 16.121 65.671 33.555l.018-.018c-17.416-17.412-40.146-29.509-65.587-33.537zm-59.836 164.66h-.102c25.48 4.012 48.239 16.121 65.671 33.555l.018-.018c-17.416-17.411-40.146-29.509-65.587-33.537z" fill="none"/><path d="M164.895 37.842v209.994H78.243v-86.57h38.75v-35.04H65.381V37.842zm215.403-.037h66.331v88.441h-51.591v35.008h38.693v86.598h-86.598V37.805h40.535z" fill="#3e4244"/><path fill="#f0efef" d="M104.874 0h302.253v264.656H104.874z"/><path d="M512 253.772v205.626c0 16.902-15.336 30.753-33.968 30.753H33.968C15.336 490.151 0 476.3 0 459.398V253.772c0-16.9 15.336-30.753 33.968-30.753h444.063c18.633 0 33.969 13.853 33.969 30.753z" fill="#43494d"/><path d="M25.631 249.708v65.117c0 4.592 4.146 8.348 9.213 8.348h442.313c5.067 0 9.213-3.757 9.213-8.348v-65.117H25.631z" fill="#3f8da5"/><path d="M476.683 356.567v133.574H35.317V356.567c0-5.51 4.975-10.018 11.055-10.018h419.256c6.08 0 11.055 4.508 11.055 10.018z" fill="#adbcbf"/><path d="M35.32 479.547v-23.492c0 5.509 4.975 10.014 11.055 10.014h419.256c6.08 0 11.055-4.505 11.055-10.014v23.492c0 5.509-4.975 10.014-11.055 10.014H46.375c-6.08 0-11.055-4.505-11.055-10.014z" opacity=".1" fill="#040000"/><path d="M476.686 356.563v23.492c0-5.509-4.975-10.014-11.055-10.014H46.375c-6.08 0-11.055 4.505-11.055 10.014v-23.492c0-5.509 4.975-10.014 11.055-10.014h419.256c6.08 0 11.055 4.505 11.055 10.014z" opacity=".1" fill="#fff"/><path d="M139.712 32.759h111.431v17.042H139.712zm0 37.772h232.577v17.042H139.712zm0 41.917h232.577v17.042H139.712zm0 39.153h232.577v17.042H139.712z" fill="#d6d7d7"/><circle cx="328.852" cy="285.624" r="19.07" fill="#aacbd3"/><circle cx="391.497" cy="285.624" r="19.07" fill="#cbd3ac"/><circle cx="448.696" cy="285.624" r="19.07" fill="#aacbd3"/><path fill="#6fbed7" d="M53.912 268.362h132.54v38.451H53.912z"/><path d="M512 253.772v205.626c0 16.902-15.336 30.753-33.968 30.753H256V0h151.126v37.842h39.493v88.384h-39.493v35.04h26.631v61.753h44.274c18.633 0 33.969 13.853 33.969 30.753z" opacity=".06" fill="#040000"/></svg>