<svg height="800" width="800" version="1.1" id="Layer_1" xmlns="http://www.w3.org/2000/svg" viewBox="0 0 512 512" xml:space="preserve"><path d="M26.483 397.241v26.483a8.829 8.829 0 008.828 8.828h17.655a8.829 8.829 0 008.828-8.828v-26.483H26.483zm423.724 0v26.483a8.829 8.829 0 008.828 8.828h17.655a8.829 8.829 0 008.828-8.828v-26.483h-35.311z" fill="#5b5d6e"/><path d="M494.345 406.069H17.655C7.904 406.069 0 398.165 0 388.414V264.828c0-9.751 7.904-17.655 17.655-17.655h476.69c9.751 0 17.655 7.904 17.655 17.655v123.586c0 9.751-7.904 17.655-17.655 17.655z" fill="#707487"/><circle cx="353.103" cy="282.483" r="88.276" fill="#959cb5"/><circle cx="353.103" cy="282.483" r="61.793" fill="#00c3f0"/><path d="M194.207 379.586a8.826 8.826 0 01-8.828-8.828v-88.276c0-4.875 3.948-8.828 8.828-8.828s8.828 3.953 8.828 8.828v88.276a8.826 8.826 0 01-8.828 8.828zm-35.31 0a8.826 8.826 0 01-8.828-8.828v-88.276a8.826 8.826 0 018.828-8.828 8.826 8.826 0 018.828 8.828v88.276a8.826 8.826 0 01-8.828 8.828zm-35.311 0a8.826 8.826 0 01-8.828-8.828v-88.276a8.826 8.826 0 018.828-8.828 8.826 8.826 0 018.828 8.828v88.276a8.825 8.825 0 01-8.828 8.828zm-35.31 0a8.826 8.826 0 01-8.828-8.828v-88.276a8.826 8.826 0 018.828-8.828 8.826 8.826 0 018.828 8.828v88.276a8.826 8.826 0 01-8.828 8.828z" fill="#464655"/><path d="M439.5 203.039a8.793 8.793 0 01-6.181-2.526c-21.569-21.142-50.051-32.789-80.215-32.789-30.155 0-58.646 11.642-80.215 32.789-3.491 3.396-9.078 3.362-12.483-.129a8.826 8.826 0 01.12-12.483c24.897-24.396 57.777-37.832 92.578-37.832 34.81 0 67.69 13.44 92.577 37.841 3.482 3.41 3.534 9 .12 12.483a8.797 8.797 0 01-6.301 2.646z" fill="#959cb5"/><path d="M243.207 176.552a8.787 8.787 0 01-6.37-2.72 8.82 8.82 0 01.267-12.483c31.353-30.042 72.552-46.59 116-46.59 43.439 0 84.638 16.543 115.991 46.578a8.818 8.818 0 01.267 12.483c-3.371 3.526-8.966 3.634-12.474.267-28.06-26.876-64.913-41.673-103.784-41.673-38.879 0-75.733 14.802-103.794 41.685a8.784 8.784 0 01-6.103 2.453z" fill="#afb9d2"/><path d="M485.56 149.354a8.798 8.798 0 01-6.026-2.375c-34.449-32.164-79.345-49.876-126.431-49.876-47.069 0-91.957 17.698-126.388 49.836a8.822 8.822 0 01-12.483-.431c-3.319-3.564-3.129-9.151.431-12.474 37.716-35.202 86.888-54.585 138.44-54.585 51.569 0 100.75 19.401 138.483 54.625 3.561 3.328 3.751 8.914.423 12.479a8.781 8.781 0 01-6.449 2.801z" fill="#c7cfe2"/><g fill="#59d8ff"><path d="M373.702 323.678c-34.127 0-61.793-27.666-61.793-61.793 0-11.78 3.356-22.751 9.077-32.118-17.772 10.852-29.675 30.369-29.675 52.716 0 34.127 27.666 61.793 61.793 61.793 22.347 0 41.864-11.903 52.716-29.675-9.369 5.721-20.338 9.077-32.118 9.077z"/><circle cx="357.517" cy="278.069" r="22.069"/></g></svg>