<svg width="800" height="800" viewBox="0 0 512 512" id="Слой_1" version="1.1" xml:space="preserve" xmlns="http://www.w3.org/2000/svg"><path clip-rule="evenodd" d="M415.698 192.641c-8.379-21.068-21.236-40.268-38.577-57.6l36.309-36.364c26.971 26.989 45.555 57.456 55.745 91.404 6.226 20.683 9.349 42.655 9.367 65.919v.06c-.008 34.011-6.66 65.254-19.957 93.729-10.701 23.024-25.735 44.24-45.097 63.651l-36.427-36.422c13.297-13.305 23.948-27.696 31.945-43.171 12.119-23.434 18.17-49.363 18.156-77.788V256c.028-22.713-3.79-43.832-11.464-63.359z" fill="#333" fill-rule="evenodd"/><path clip-rule="evenodd" d="M351.69 160.99c8.768 8.825 16.062 18.27 21.88 28.334h.06c11.449 19.798 17.17 41.983 17.165 66.56V256c-.004 25.516-6.152 48.478-18.447 68.889h-.057c-5.676 9.334-12.638 18.139-20.892 26.414v-.06l-.057.06-36.427-36.423a97.948 97.948 0 006.576-7.505v-.06c11.828-14.672 17.763-31.779 17.807-51.315v-.116c-.019-22.938-8.124-42.506-24.323-58.705l36.483-36.538c.083.111.16.227.232.349zm-125.861 64.581c8.342-8.35 18.427-12.519 30.259-12.509 11.851-.01 21.956 4.159 30.316 12.509l.059.059c8.313 8.348 12.463 18.433 12.451 30.254V256c-.016 11.798-4.187 21.863-12.51 30.197a.21.21 0 00-.058.116c-8.364 8.272-18.447 12.402-30.259 12.394-11.817.009-21.884-4.142-30.201-12.452l-.058-.058c-8.311-8.317-12.481-18.365-12.511-30.138v-.176c-.012-11.787 4.121-21.854 12.395-30.196a6.14 6.14 0 00.117-.116zm-104.564 30.313c-.006-1.646.014-3.273.059-4.887 1.113-35.124 14.225-65.242 39.335-90.356l36.426 36.422c-16.217 16.235-24.306 35.842-24.265 58.821v.176a84.532 84.532 0 00.291 7.563v.057c1.61 19.688 9.602 36.736 23.974 51.143.035.037.073.075.117.116l-36.485 36.423-.058-.059c-26.237-26.289-39.368-58.037-39.394-95.243v-.176z" fill="#333" fill-rule="evenodd"/><path clip-rule="evenodd" d="M35.437 225.28c6.121-48.44 27.186-90.661 63.192-126.662l36.425 36.423c-29.26 29.239-45.727 63.78-49.402 103.621a191.95 191.95 0 00-.756 17.397c.002 47.206 16.684 87.524 50.042 120.959l.058.059-36.426 36.421-.058-.058c-43.359-43.459-65.025-95.92-64.997-157.381.006-10.527.646-20.788 1.922-30.779z" fill="#333" fill-rule="evenodd"/></svg>